<svg width="33" height="33" viewBox="0 0 33 33" fill="none" xmlns="http://www.w3.org/2000/svg">
<path d="M17.4346 3.55884C18.9401 3.56285 19.7042 3.57088 20.3639 3.58962L20.6236 3.59898C20.9233 3.60969 21.2191 3.62307 21.5764 3.63913C23.0003 3.70604 23.9718 3.93087 24.8243 4.26141C25.7075 4.60132 26.4516 5.06168 27.1956 5.8044C27.8761 6.47338 28.4027 7.2826 28.7386 8.17575C29.0692 9.02821 29.294 9.99976 29.3609 11.425C29.377 11.781 29.3903 12.0767 29.4011 12.3778L29.4091 12.6374C29.4292 13.2958 29.4372 14.06 29.4399 15.5655L29.4412 16.5638V18.3169C29.4445 19.293 29.4342 20.2691 29.4104 21.245L29.4024 21.5046C29.3917 21.8057 29.3783 22.1014 29.3622 22.4574C29.2953 23.8826 29.0678 24.8528 28.7386 25.7066C28.4036 26.6003 27.877 27.4097 27.1956 28.078C26.5265 28.7582 25.7173 29.2847 24.8243 29.621C23.9718 29.9515 23.0003 30.1763 21.5764 30.2433C21.2588 30.2582 20.9412 30.2716 20.6236 30.2834L20.3639 30.2914C19.7042 30.3102 18.9401 30.3195 17.4346 30.3222L16.4362 30.3235H14.6845C13.7079 30.3269 12.7314 30.3167 11.7551 30.2928L11.4955 30.2847C11.1778 30.2727 10.8602 30.2589 10.5426 30.2433C9.11876 30.1763 8.1472 29.9515 7.2934 29.621C6.40036 29.2856 5.59146 28.7589 4.92339 28.078C4.24229 27.4093 3.71526 26.6 3.37907 25.7066C3.04852 24.8542 2.8237 23.8826 2.75679 22.4574C2.74188 22.1399 2.72849 21.8222 2.71664 21.5046L2.70995 21.245C2.68529 20.2691 2.67413 19.293 2.67649 18.3169V15.5655C2.67276 14.5894 2.68257 13.6133 2.70593 12.6374L2.7153 12.3778C2.72601 12.0767 2.73939 11.781 2.75545 11.425C2.82236 9.99976 3.04718 9.02954 3.37773 8.17575C3.71378 7.28168 4.24185 6.47221 4.92473 5.8044C5.59263 5.12387 6.40099 4.59729 7.2934 4.26141C8.1472 3.93087 9.11742 3.70604 10.5426 3.63913C10.8986 3.62307 11.1957 3.60969 11.4955 3.59898L11.7551 3.59096C12.7309 3.56718 13.707 3.55692 14.6831 3.56018L17.4346 3.55884ZM16.0588 10.25C14.2842 10.25 12.5823 10.955 11.3275 12.2098C10.0726 13.4647 9.36767 15.1666 9.36767 16.9412C9.36767 18.7158 10.0726 20.4177 11.3275 21.6726C12.5823 22.9274 14.2842 23.6324 16.0588 23.6324C17.8335 23.6324 19.5354 22.9274 20.7902 21.6726C22.0451 20.4177 22.75 18.7158 22.75 16.9412C22.75 15.1666 22.0451 13.4647 20.7902 12.2098C19.5354 10.955 17.8335 10.25 16.0588 10.25ZM16.0588 12.9265C16.5861 12.9264 17.1081 13.0302 17.5953 13.2318C18.0824 13.4335 18.525 13.7292 18.8979 14.1019C19.2707 14.4746 19.5665 14.9172 19.7684 15.4042C19.9702 15.8913 20.0741 16.4133 20.0742 16.9405C20.0743 17.4677 19.9706 17.9898 19.7689 18.4769C19.5672 18.9641 19.2716 19.4067 18.8988 19.7795C18.5261 20.1524 18.0835 20.4482 17.5965 20.65C17.1094 20.8519 16.5874 20.9558 16.0602 20.9559C14.9954 20.9559 13.9743 20.5329 13.2214 19.78C12.4685 19.0271 12.0455 18.006 12.0455 16.9412C12.0455 15.8764 12.4685 14.8553 13.2214 14.1024C13.9743 13.3495 14.9954 12.9265 16.0602 12.9265M23.0859 8.24266C22.6423 8.24266 22.2168 8.4189 21.9031 8.73261C21.5894 9.04632 21.4131 9.4718 21.4131 9.91546C21.4131 10.3591 21.5894 10.7846 21.9031 11.0983C22.2168 11.412 22.6423 11.5883 23.0859 11.5883C23.5296 11.5883 23.9551 11.412 24.2688 11.0983C24.5825 10.7846 24.7587 10.3591 24.7587 9.91546C24.7587 9.4718 24.5825 9.04632 24.2688 8.73261C23.9551 8.4189 23.5296 8.24266 23.0859 8.24266Z" fill="#FFDE59"/>
</svg>
