<svg width="33" height="33" viewBox="0 0 33 33" fill="none" xmlns="http://www.w3.org/2000/svg">
<path d="M5.35298 27.0587C4.61695 27.0587 3.98709 26.7969 3.4634 26.2732C2.9397 25.7495 2.67741 25.1192 2.67651 24.3823V8.32344C2.67651 7.58741 2.93881 6.95755 3.4634 6.43385C3.98798 5.91016 4.61785 5.64786 5.35298 5.64697H26.7648C27.5008 5.64697 28.1311 5.90927 28.6557 6.43385C29.1803 6.95844 29.4421 7.58831 29.4412 8.32344V24.3823C29.4412 25.1183 29.1794 25.7486 28.6557 26.2732C28.132 26.7978 27.5017 27.0596 26.7648 27.0587H5.35298ZM16.0589 17.6911L26.7648 10.9999V8.32344L16.0589 15.0146L5.35298 8.32344V10.9999L16.0589 17.6911Z" fill="#FFDE59"/>
</svg>
