<svg width="33" height="33" viewBox="0 0 33 33" fill="none" xmlns="http://www.w3.org/2000/svg">
<path d="M26.6978 28.1029C23.9098 28.1029 21.1553 27.4953 18.4342 26.2802C15.7131 25.0651 13.2374 23.3419 11.007 21.1106C8.7766 18.8793 7.05384 16.4036 5.83872 13.6834C4.62361 10.9632 4.0156 8.20868 4.01471 5.4198C4.01471 5.01833 4.14853 4.68377 4.41618 4.41612C4.68383 4.14847 5.01839 4.01465 5.41986 4.01465H10.8397C11.152 4.01465 11.4308 4.12081 11.6761 4.33315C11.9215 4.54548 12.0664 4.79618 12.111 5.08524L12.9809 9.76906C13.0255 10.1259 13.0143 10.427 12.9474 10.6724C12.8805 10.9177 12.7578 11.1296 12.5794 11.308L9.3342 14.5867C9.78027 15.412 10.3098 16.2091 10.9227 16.9781C11.5356 17.7472 12.2105 18.489 12.9474 19.2036C13.6389 19.895 14.3637 20.5365 15.1221 21.128C15.8804 21.7195 16.6833 22.2601 17.5309 22.7499L20.6757 19.6051C20.8765 19.4044 21.1388 19.254 21.4626 19.1541C21.7865 19.0542 22.1041 19.0261 22.4154 19.0698L27.0324 20.0066C27.3446 20.0958 27.6011 20.2577 27.8018 20.4923C28.0026 20.727 28.1029 20.9888 28.1029 21.2779V26.6977C28.1029 27.0992 27.9691 27.4338 27.7015 27.7014C27.4338 27.9691 27.0993 28.1029 26.6978 28.1029Z" fill="#FFDE59"/>
</svg>
