<svg width="33" height="33" viewBox="0 0 33 33" fill="none" xmlns="http://www.w3.org/2000/svg">
<g clip-path="url(#clip0_150_636)">
<path fill-rule="evenodd" clip-rule="evenodd" d="M16.0589 3.26465C8.66779 3.26465 2.67651 9.25593 2.67651 16.647C2.67651 19.1763 3.37909 21.5449 4.6009 23.563L3.40719 27.6205C3.33865 27.8535 3.33414 28.1006 3.39413 28.3359C3.45413 28.5712 3.57641 28.786 3.74812 28.9578C3.91983 29.1295 4.13463 29.2517 4.36994 29.3117C4.60525 29.3717 4.85237 29.3672 5.08534 29.2987L9.14287 28.105C11.2287 29.367 13.6209 30.0327 16.0589 30.0294C23.4499 30.0294 29.4412 24.0381 29.4412 16.647C29.4412 9.25593 23.4499 3.26465 16.0589 3.26465ZM13.0318 19.6754C15.739 22.3813 18.3232 22.7386 19.2358 22.7721C20.6236 22.823 21.9752 21.7631 22.5011 20.5332C22.5675 20.3802 22.5916 20.2122 22.5709 20.0467C22.5502 19.8813 22.4854 19.7244 22.3834 19.5925C21.65 18.6557 20.6584 17.9826 19.6895 17.3134C19.4872 17.1736 19.2386 17.1175 18.9959 17.1569C18.7531 17.1963 18.535 17.3282 18.3874 17.5249L17.5845 18.7494C17.5422 18.8152 17.4765 18.8624 17.4006 18.8813C17.3247 18.9002 17.2445 18.8894 17.1763 18.8511C16.6316 18.5393 15.8381 18.0093 15.268 17.4392C14.6979 16.8691 14.2001 16.1117 13.9204 15.6018C13.8857 15.5371 13.8757 15.4619 13.8921 15.3903C13.9086 15.3187 13.9505 15.2555 14.01 15.2124L15.2466 14.2944C15.423 14.1409 15.5369 13.928 15.5665 13.696C15.5961 13.464 15.5394 13.2293 15.4071 13.0364C14.8076 12.1586 14.1091 11.0425 13.096 10.3024C12.9653 10.2077 12.8121 10.1486 12.6516 10.131C12.4911 10.1134 12.3288 10.1379 12.1807 10.2021C10.9495 10.7293 9.88425 12.0809 9.9351 13.4714C9.96856 14.384 10.3259 16.9682 13.0318 19.6754Z" fill="#FFDE59"/>
</g>
<defs>
<clipPath id="clip0_150_636">
<rect width="32.1176" height="32.1176" fill="white" transform="translate(0 0.588135)"/>
</clipPath>
</defs>
</svg>
